<svg width="201" height="57" viewBox="0 0 201 57" fill="none" xmlns="http://www.w3.org/2000/svg">
<path d="M153.666 13.1822L152.452 20.0757H141.563L140.897 23.9141H148.731L147.556 30.4551H139.722L137.882 40.9129H129.186L134.082 13.1822H153.666Z" fill="#AAEEEE"/>
<path d="M160.332 17.0598C158.974 17.0598 157.904 16.7334 157.12 16.0806C156.363 15.4278 155.985 14.5791 155.985 13.5347C155.985 12.6208 156.233 11.7721 156.729 10.9888C157.225 10.2054 157.917 9.59179 158.805 9.14789C159.719 8.67788 160.724 8.44287 161.821 8.44287C163.152 8.44287 164.197 8.78232 164.954 9.46123C165.737 10.114 166.129 10.9757 166.129 12.0463C166.129 12.9602 165.881 13.7958 165.385 14.553C164.889 15.3103 164.197 15.9239 163.309 16.3939C162.421 16.8378 161.429 17.0598 160.332 17.0598ZM164.327 18.8223L160.411 40.9129H151.715L155.632 18.8223H164.327Z" fill="#AAEEEE"/>
<path d="M178.164 11.9288L173.033 40.9129H164.338L166.903 26.4208L169.469 11.9288H178.164Z" fill="#AAEEEE"/>
<path d="M191.021 18.5481C193.946 18.5481 196.27 19.3315 197.993 20.8982C199.717 22.4388 200.578 24.5538 200.578 27.2434C200.578 28.0006 200.5 28.8101 200.343 29.6718C200.16 30.5334 200.017 31.1079 199.912 31.3951H185.969C185.943 31.5518 185.93 31.7738 185.93 32.061C185.93 33.5232 186.556 34.2544 187.81 34.2544C188.776 34.2544 189.533 33.8235 190.081 32.9618H199.286C198.711 34.5286 197.81 35.9386 196.583 37.192C195.356 38.4192 193.907 39.3984 192.236 40.1295C190.591 40.8345 188.854 41.1871 187.026 41.1871C184.102 41.1871 181.778 40.4168 180.054 38.8762C178.357 37.3095 177.508 35.1422 177.508 32.3743C177.508 31.5649 177.587 30.7293 177.743 29.8676C178.161 27.5698 178.997 25.5722 180.25 23.8749C181.504 22.1516 183.057 20.8329 184.911 19.919C186.791 19.0051 188.828 18.5481 191.021 18.5481ZM191.844 27.8309C191.87 27.7003 191.883 27.5045 191.883 27.2434C191.883 26.6167 191.687 26.1467 191.296 25.8333C190.904 25.52 190.408 25.3633 189.807 25.3633C188.24 25.3633 187.183 26.1858 186.635 27.8309H191.844Z" fill="#AAEEEE"/>
<path d="M178.164 11.9287L173.033 40.9128H164.338L166.903 26.4208L169.469 11.9287H178.164Z" fill="#11BBDD"/>
<path d="M11.1637 41.6653C7.76886 41.6653 5.05302 40.9864 3.01615 39.6284C1.00538 38.2705 0 36.2859 0 33.6745C0 33.4134 0.0261138 33.0216 0.0783415 32.4994H9.32263C9.24429 33.3089 9.36181 33.9095 9.67517 34.3012C10.0147 34.6929 10.563 34.8888 11.3203 34.8888C11.7904 34.8888 12.1821 34.7713 12.4955 34.5362C12.8088 34.3012 12.9655 33.9617 12.9655 33.5178C12.9655 32.8911 12.6521 32.3688 12.0254 31.951C11.4248 31.5332 10.4455 31.037 9.08761 30.4625C7.59912 29.8358 6.37177 29.2351 5.40556 28.6606C4.46546 28.0861 3.64288 27.3027 2.93781 26.3104C2.23273 25.3181 1.8802 24.0777 1.8802 22.5892C1.8802 20.6306 2.3633 18.9463 3.32951 17.5362C4.32184 16.0999 5.69281 15.0162 7.44244 14.285C9.19207 13.5538 11.1898 13.1882 13.4356 13.1882C15.4463 13.1882 17.2351 13.5016 18.802 14.1283C20.3949 14.755 21.6353 15.669 22.5232 16.8702C23.4372 18.0454 23.8941 19.4425 23.8941 21.0615C23.8941 21.2704 23.868 21.636 23.8158 22.1583H14.454C14.5062 21.8449 14.5323 21.636 14.5323 21.5316C14.5323 21.0354 14.3887 20.6568 14.1015 20.3956C13.8142 20.1084 13.4225 19.9647 12.9263 19.9647C12.4824 19.9647 12.1168 20.0953 11.8296 20.3564C11.5423 20.6176 11.3987 20.9571 11.3987 21.3749C11.3987 21.9494 11.699 22.4586 12.2996 22.9025C12.9002 23.3204 13.8534 23.8426 15.1591 24.4694C16.6476 25.1744 17.8749 25.8403 18.8411 26.4671C19.8335 27.0938 20.6821 27.9295 21.3872 28.974C22.0923 29.9924 22.4448 31.2459 22.4448 32.7344C22.4448 34.4318 21.9878 35.9595 21.0739 37.3174C20.186 38.6753 18.8934 39.746 17.196 40.5294C15.4986 41.2867 13.4878 41.6653 11.1637 41.6653Z" fill="#AAEEEE"/>
<path d="M36.4523 22.315C37.1835 21.2965 38.1106 20.5001 39.2335 19.9256C40.3825 19.3249 41.6751 19.0246 43.1114 19.0246C45.331 19.0246 47.1198 19.7689 48.4778 21.2574C49.8357 22.7459 50.5146 24.8089 50.5146 27.4463C50.5146 28.4387 50.4232 29.4049 50.2404 30.345C49.8226 32.6691 49.0653 34.6929 47.9685 36.4164C46.8718 38.1138 45.553 39.4195 44.0123 40.3335C42.4716 41.2214 40.8395 41.6653 39.116 41.6653C37.6797 41.6653 36.4915 41.3781 35.5514 40.8036C34.6374 40.2029 33.9976 39.3934 33.6321 38.375L31.2426 51.9672H22.5467L28.3048 19.2988H37.0007L36.4523 22.315ZM41.427 30.345C41.4793 30.11 41.5054 29.7966 41.5054 29.4049C41.5054 28.517 41.2703 27.8381 40.8003 27.368C40.3302 26.8718 39.6905 26.6238 38.8809 26.6238C37.9408 26.6238 37.1052 26.9502 36.374 27.603C35.6689 28.2559 35.2119 29.1699 35.003 30.345C34.9508 30.58 34.9247 30.8934 34.9247 31.2851C34.9247 32.1729 35.1597 32.865 35.6298 33.3611C36.0998 33.8312 36.7396 34.0662 37.5491 34.0662C38.4892 34.0662 39.3118 33.7398 40.0169 33.0869C40.7481 32.4341 41.2181 31.5201 41.427 30.345Z" fill="#AAEEEE"/>
<path d="M65.0739 19.0246C67.9987 19.0246 70.3228 19.8081 72.0463 21.3749C73.7698 22.9156 74.6316 25.0308 74.6316 27.7205C74.6316 28.4778 74.5532 29.2874 74.3965 30.1491C74.2138 31.0109 74.0701 31.5854 73.9657 31.8726H60.0209C59.9948 32.0293 59.9817 32.2513 59.9817 32.5385C59.9817 34.0009 60.6084 34.7321 61.8619 34.7321C62.8281 34.7321 63.5854 34.3012 64.1338 33.4395H73.3389C72.7644 35.0063 71.8635 36.4164 70.6362 37.6699C69.4088 38.8973 67.9595 39.8765 66.2882 40.6077C64.643 41.3128 62.9065 41.6653 61.0785 41.6653C58.1538 41.6653 55.8296 40.895 54.1061 39.3542C52.4087 37.7874 51.56 35.62 51.56 32.8519C51.56 32.0424 51.6384 31.2067 51.795 30.345C52.2129 28.047 53.0485 26.0493 54.302 24.3519C55.5554 22.6283 57.1092 21.3096 58.9633 20.3956C60.8435 19.4816 62.8804 19.0246 65.0739 19.0246ZM65.8965 28.3081C65.9226 28.1775 65.9357 27.9817 65.9357 27.7205C65.9357 27.0938 65.7398 26.6238 65.3481 26.3104C64.9564 25.997 64.4602 25.8403 63.8596 25.8403C62.2928 25.8403 61.2352 26.6629 60.6868 28.3081H65.8965Z" fill="#AAEEEE"/>
<path d="M89.2113 19.0246C92.1361 19.0246 94.4602 19.8081 96.1837 21.3749C97.9072 22.9156 98.769 25.0308 98.769 27.7205C98.769 28.4778 98.6907 29.2874 98.534 30.1491C98.3512 31.0109 98.2076 31.5854 98.1031 31.8726H84.1583C84.1322 32.0293 84.1191 32.2513 84.1191 32.5385C84.1191 34.0009 84.7459 34.7321 85.9993 34.7321C86.9656 34.7321 87.7229 34.3012 88.2712 33.4395H97.4764C96.9019 35.0063 96.0009 36.4164 94.7736 37.6699C93.5462 38.8973 92.0969 39.8765 90.4256 40.6077C88.7805 41.3128 87.0439 41.6653 85.2159 41.6653C82.2912 41.6653 79.967 40.895 78.2435 39.3542C76.5461 37.7874 75.6974 35.62 75.6974 32.8519C75.6974 32.0424 75.7758 31.2067 75.9325 30.345C76.3503 28.047 77.1859 26.0493 78.4394 24.3519C79.6929 22.6283 81.2466 21.3096 83.1007 20.3956C84.9809 19.4816 87.0178 19.0246 89.2113 19.0246ZM90.0339 28.3081C90.06 28.1775 90.0731 27.9817 90.0731 27.7205C90.0731 27.0938 89.8773 26.6238 89.4855 26.3104C89.0938 25.997 88.5977 25.8403 87.9971 25.8403C86.4302 25.8403 85.3726 26.6629 84.8242 28.3081H90.0339Z" fill="#AAEEEE"/>
<path d="M100.07 30.345C100.488 28.0209 101.245 26.0101 102.342 24.3127C103.439 22.5892 104.757 21.2835 106.298 20.3956C107.839 19.4816 109.471 19.0246 111.194 19.0246C112.631 19.0246 113.806 19.3249 114.72 19.9256C115.66 20.5001 116.313 21.2965 116.678 22.315L118.441 12.4048H127.137L122.006 41.3911H113.31L113.858 38.375C113.127 39.3934 112.187 40.2029 111.038 40.8036C109.915 41.3781 108.635 41.6653 107.199 41.6653C104.979 41.6653 103.191 40.9211 101.833 39.4326C100.475 37.9441 99.7957 35.8811 99.7957 33.2436C99.7957 32.2513 99.8871 31.2851 100.07 30.345ZM115.307 30.345C115.36 30.11 115.386 29.7966 115.386 29.4049C115.386 28.517 115.151 27.8381 114.681 27.368C114.211 26.8718 113.571 26.6238 112.761 26.6238C111.821 26.6238 110.985 26.9502 110.254 27.603C109.549 28.2559 109.092 29.1699 108.883 30.345C108.831 30.58 108.805 30.8934 108.805 31.2851C108.805 32.1729 109.04 32.865 109.51 33.3611C109.98 33.8312 110.62 34.0662 111.429 34.0662C112.37 34.0662 113.192 33.7398 113.897 33.0869C114.628 32.4341 115.098 31.5201 115.307 30.345Z" fill="#AAEEEE"/>
<path d="M163.562 43.5172L153.96 52.5439L148 40.79L163.562 43.5172Z" fill="#11BBDD"/>
<path d="M160.222 44.7843L151 44L155.5 18.5H164.5L160.222 44.7843Z" fill="#11BBDD"/>
<path d="M166.259 11.0762L175.761 2.65088L181.831 13.8051L166.259 11.0762Z" fill="#11BBDD"/>
<path d="M169.828 10.1704L178.447 11.6808L173.751 38.4795L164.922 38.1656L169.828 10.1704Z" fill="url(#paint0_linear_31_6483)"/>
<defs>
<linearGradient id="paint0_linear_31_6483" x1="174.138" y1="10.9255" x2="171.184" y2="31.367" gradientUnits="userSpaceOnUse">
<stop stop-color="#11BBDD"/>
<stop offset="1" stop-color="#11BBDD" stop-opacity="0"/>
</linearGradient>
</defs>
</svg>
